<?xml version="1.0" encoding="UTF-8"?>
<svg xmlns="http://www.w3.org/2000/svg" viewBox="0 0 64 64" role="img" aria-label="Elaris Bath favicon">
  <defs>
    <linearGradient id="bg" x1="0" y1="0" x2="1" y2="1">
      <stop offset="0" stop-color="#062f2a"/>
      <stop offset="1" stop-color="#031c19"/>
    </linearGradient>
  </defs>
  <rect x="2" y="2" width="60" height="60" rx="16" fill="url(#bg)"/>
  <path d="M18 30c0-3.3 2.7-6 6-6h16c3.3 0 6 2.7 6 6v2" fill="none" stroke="#d8c08a" stroke-width="4" stroke-linecap="round"/>
  <path d="M18 34h34c0 10.5-7.9 18-20.2 18H32C24.4 52 18 45.8 18 38v-4z" fill="none" stroke="#d8c08a" stroke-width="4" stroke-linejoin="round"/>
  <path d="M24 50v4M48 50v4" fill="none" stroke="#d8c08a" stroke-width="4" stroke-linecap="round"/>
  <path d="M46 18c0 3-3 4.7-3 7.3 0 1.6 1.3 2.7 3 2.7" fill="none" stroke="#b8c0be" stroke-width="3" stroke-linecap="round"/>
</svg>
